{
	"asset":{
		"generator":"Khronos glTF Blender I/O v4.0.44",
		"version":"2.0"
	},
	"scene":0,
	"scenes":[
		{
			"name":"Scene",
			"nodes":[
				0
			]
		}
	],
	"nodes":[
		{
			"mesh":0,
			"name":"SWS"
		}
	],
	"materials":[
		{
			"doubleSided":true,
			"name":"SWSMat",
			"normalTexture":{
				"index":0
			},
			"pbrMetallicRoughness":{
				"baseColorTexture":{
					"index":1
				},
				"metallicRoughnessTexture":{
					"index":2
				}
			}
		}
	],
	"meshes":[
		{
			"name":"SWS",
			"primitives":[
				{
					"attributes":{
						"POSITION":0,
						"NORMAL":1,
						"TEXCOORD_0":2
					},
					"indices":3,
					"material":0
				}
			]
		}
	],
	"textures":[
		{
			"sampler":0,
			"source":0
		},
		{
			"sampler":0,
			"source":1
		},
		{
			"sampler":0,
			"source":2
		}
	],
	"images":[
		{
			"mimeType":"image/jpeg",
			"name":"SWS_N",
			"uri":"SWS_N.jpg"
		},
		{
			"mimeType":"image/jpeg",
			"name":"SWS",
			"uri":"SWS.jpg"
		},
		{
			"mimeType":"image/png",
			"name":"SWS_M-SWS_R",
			"uri":"SWS_M-SWS_R.png"
		}
	],
	"accessors":[
		{
			"bufferView":0,
			"componentType":5126,
			"count":465,
			"max":[
				0.07816803455352783,
				0.9999972581863403,
				0.09649759531021118
			],
			"min":[
				-0.09683196246623993,
				-1,
				-0.08850239962339401
			],
			"type":"VEC3"
		},
		{
			"bufferView":1,
			"componentType":5126,
			"count":465,
			"type":"VEC3"
		},
		{
			"bufferView":2,
			"componentType":5126,
			"count":465,
			"type":"VEC2"
		},
		{
			"bufferView":3,
			"componentType":5123,
			"count":1908,
			"type":"SCALAR"
		}
	],
	"bufferViews":[
		{
			"buffer":0,
			"byteLength":5580,
			"byteOffset":0,
			"target":34962
		},
		{
			"buffer":0,
			"byteLength":5580,
			"byteOffset":5580,
			"target":34962
		},
		{
			"buffer":0,
			"byteLength":3720,
			"byteOffset":11160,
			"target":34962
		},
		{
			"buffer":0,
			"byteLength":3816,
			"byteOffset":14880,
			"target":34963
		}
	],
	"samplers":[
		{
			"magFilter":9729,
			"minFilter":9987
		}
	],
	"buffers":[
		{
			"byteLength":18696,
			"uri":"SWS.bin"
		}
	]
}
